PathFileType	4	(X/Y/Z)	Patient4_TMGait_0pt4_01_right_30.trc.trc
DataRate	CameraRate	NumFrames	NumMarkers	Units	OrigDataRate	OrigDataStartFrame	OrigNumFrames
74.074074074074	74.074074074074	5	33	mm	74.074074074074	53	       141
Frame#	Time	Sacral			L.Shoulder			Chest			R.Shoulder			Neck			R.ASIS			L.ASIS			R.Thigh.Superior			R.Thigh.Lateral			R.Thigh.Inferior			R.Patella			L.Thigh.Superior			L.Thigh.Lateral			L.Thigh.Inferior			L.Patella			L.Shank.Superior			L.Shank.Lateral			L.Shank.Inferior			R.Shank.Superior			R.Shank.Lateral			R.Shank.Inferior			R.Heel			R.Midfoot.Superior			R.Midfoot.Lateral			R.Toe			L.Heel			L.Midfoot.Lateral			L.Midfoot.Superior			L.Toe			L.Elbow			L.Wrist			R.Elbow			R.Wrist			
		X1	Y1	Z1	X2	Y2	Z2	X3	Y3	Z3	X4	Y4	Z4	X5	Y5	Z5	X6	Y6	Z6	X7	Y7	Z7	X8	Y8	Z8	X9	Y9	Z9	X10	Y10	Z10	X11	Y11	Z11	X12	Y12	Z12	X13	Y13	Z13	X14	Y14	Z14	X15	Y15	Z15	X16	Y16	Z16	X17	Y17	Z17	X18	Y18	Z18	X19	Y19	Z19	X20	Y20	Z20	X21	Y21	Z21	X22	Y22	Z22	X23	Y23	Z23	X24	Y24	Z24	X25	Y25	Z25	X26	Y26	Z26	X27	Y27	Z27	X28	Y28	Z28	X29	Y29	Z29	X30	Y30	Z30	X31	Y31	Z31	X32	Y32	Z32	X33	Y33	Z33	

53	39.462000000000	901.745480182505	1002.721600748718	565.561091839737	1067.658984558269	1439.477921140277	384.248222888516	1179.586335905342	1368.813244565280	538.426209420492	1104.531333815849	1439.584814153535	718.247881320464	1070.906479374079	1498.544154658029	540.999114507628	1137.908164166482	946.348526635855	671.919502720568	1109.664176182779	969.007186809773	398.811280743093	1170.568544604188	741.571853909887	640.748090617613	1086.974857400941	633.466753398633	702.258599250545	1161.425966664487	580.211542050714	621.596665047937	1157.583032356052	493.130473463082	627.092589343852	1202.157626378444	793.657694392218	420.081400485921	1164.461417103073	665.195856543063	339.213102769407	1275.817209075214	611.881879834969	393.172707270917	1298.195049088500	528.057993785651	383.911607844949	1247.240797841008	452.781882581807	375.935608366153	1119.170931411203	378.542636854249	329.909100442886	1143.154787285009	247.992476676238	378.656039432101	1128.134334730897	404.274705348268	632.987330056574	1053.470858008319	300.890513382224	691.799777139949	1095.994408490640	206.524037809545	627.440745141656	961.029588131164	43.417531383721	589.146044150434	1130.280556559915	97.516667147209	633.585541582286	1040.911226304958	36.733999281423	668.373252414960	1249.411998178370	45.350135883406	666.457051423738	978.461561546232	136.813081318071	421.184525300973	1040.395623906776	111.084525458010	335.864176755634	1141.158103009255	142.893518799817	353.899210545094	1241.189380249151	55.084981582897	315.151107212508	989.543509906047	1096.059057077001	269.417236006824	1048.189794116453	842.370954723385	231.978889826669	1123.237380226847	1099.081912536165	854.887436943114	1312.199478813001	923.130628147971	830.372936959954	
54	39.475500000000	900.661971728867	1003.839896835663	566.907111115181	1066.746418329099	1439.901486184032	384.873711055097	1179.734026683331	1368.735437495811	538.039943388711	1106.515072068319	1439.651010572573	718.526615489213	1071.604920830794	1498.840306966991	541.616138831883	1137.199133765957	946.090194944449	671.618440987386	1107.481099865098	969.601759473995	398.747566881901	1167.483049423357	740.987339789767	640.210940882977	1083.105463180640	633.661651422914	702.425262575931	1156.455840951864	579.703535201472	621.450544960128	1151.795581206740	493.043100735251	627.044688593931	1199.493216882072	794.408891719581	420.328436971139	1162.551290809707	666.156544888233	339.057601114900	1273.165019909312	612.848979459106	394.121765138050	1296.765923736386	530.789106647333	384.557054791162	1249.610950301323	454.888322922414	375.751792644552	1126.978273687148	373.399390928574	328.178170517338	1158.634003023882	244.137499812086	376.575479268876	1122.496428005283	404.328842020364	633.017415931362	1047.879322777752	300.909070407558	691.713842468444	1090.470290234076	206.547969241416	627.448256787457	955.595263512003	43.372643727496	589.164552877284	1124.795563641791	97.529691007659	633.645004316628	1035.451241445197	36.717203869313	668.387639402911	1243.921029168357	45.376241775882	666.502670767597	1001.285178521217	122.230957007543	417.497227742031	1065.135741364937	101.416765381689	332.353101343804	1163.480454112000	139.453621303760	351.201980736362	1269.192797989524	58.872625108584	312.404960969721	985.721588067065	1096.794078200047	271.079921635644	1041.826519583856	842.586468633945	233.549246995713	1128.810864414857	1099.486011915600	855.055465124277	1320.456666795419	926.833059820646	828.337354464107	
55	39.489000000000	899.610471959978	1004.823254033432	568.108050547962	1065.934646487870	1440.180078716633	385.334068731241	1179.905352213222	1368.512071510692	537.525099876459	1108.437398111647	1439.569950615358	718.596469418207	1072.339362376034	1499.009316656148	542.067841445898	1136.486128394274	945.743390152781	671.184781246919	1105.355435303339	970.045656724190	398.547858546317	1164.522523747056	740.371508953777	639.548527576970	1079.445495947206	633.812830576564	702.516218193915	1151.641570392554	579.184528428901	621.186634593213	1146.220070192918	492.930356119103	626.907366034541	1196.549109857519	794.574088614700	420.582898050422	1160.176993416169	666.696660003874	338.765286608420	1269.684860571942	613.033050740627	395.286625718973	1294.420682238736	532.947918042820	385.448177067073	1251.216883998236	456.728005824421	375.743945441167	1134.856230416425	368.106057550251	326.184354770301	1174.103377187471	240.672135292253	374.564264514705	1117.037986902292	404.345484624324	632.961507204660	1042.461746518476	300.901714733547	691.575631938335	1085.027729003831	206.530139271974	627.386804665841	950.165853040105	43.325685806242	589.177512253164	1119.302490960545	97.513592020173	633.653820231461	1029.994031001605	36.700327562536	668.391585323711	1238.438652606025	45.390248772983	666.545959001737	1024.798067506830	108.452690745203	413.356495608418	1090.681078883321	92.503276608976	328.783501523763	1186.117146177099	136.635056505434	348.796427451013	1297.211628994344	63.465060588905	310.722708211661	982.236573736496	1097.376964279944	272.479139670848	1035.988884283721	842.728756512312	234.834301603696	1134.199240892983	1099.719438407389	854.930804393836	1328.370553188105	930.316806221887	826.067387698880	
56	39.502500000000	898.610207083964	1005.668001413949	569.169957322145	1065.229879488528	1440.316846538954	385.609899097094	1180.098424641577	1368.156530267243	536.874410453444	1110.291385840514	1439.373836337693	718.452115492090	1073.110659943116	1499.063944616811	542.326804072971	1135.784398501434	945.334857930437	670.636844138352	1103.296459728261	970.352107621614	398.219585740818	1161.725813457041	739.734085009299	638.793148467244	1076.021167694423	633.918040136192	702.520773423550	1147.035099749816	578.659441441597	620.808565112247	1140.916148806064	492.782614153427	626.678998090863	1193.365149845125	794.211026977851	420.824194559790	1157.363947843759	666.868824611096	338.307479606591	1265.473296728349	612.522118560448	396.550743752705	1291.257841708653	534.587780679085	386.502403155178	1252.079177415165	458.359282595272	375.876067361300	1142.701680904672	362.893034541828	323.987176933402	1189.295660551990	237.808489831234	372.710015240595	1111.799306542963	404.314234858484	632.812951722109	1037.243046814819	300.875710231888	691.393887595273	1079.682727993884	206.469631640029	627.260132267038	944.738896431287	43.280429843208	589.185206172254	1113.808806540865	97.474465932451	633.622156571901	1024.539106911409	36.685551542394	668.387174539197	1232.967132211103	45.390839103121	666.587775167353	1048.563902455377	95.925002278546	408.960073591584	1116.591537797696	84.642282178434	325.357521721038	1208.691287848903	134.624163320094	346.815602929794	1324.770301699784	68.871573120173	310.287233886968	979.098061028747	1097.803381378411	273.600667295350	1030.688032473009	842.786013546340	235.809326177696	1139.391870601248	1099.814385442640	854.516667958131	1335.905300807803	933.578562634322	823.564428758168	
57	39.516000000000	897.680231269644	1006.379370019382	570.094425554361	1064.634158625065	1440.323037492918	385.684322634353	1180.309653844769	1367.691056519172	536.082658787898	1112.071155575785	1439.102640698734	718.093241347479	1073.914039280526	1499.022463764551	542.368012793704	1135.111709391116	944.893770638119	669.991558978382	1101.314041086540	970.541404164356	397.769732892146	1159.121473201029	739.084070363539	637.971487916264	1072.846822212683	633.975725283681	702.423299128634	1142.679204780264	578.132618335925	620.316313389026	1135.929644564900	492.590410009920	626.353766317479	1189.994761440168	793.399196268219	421.020078161346	1154.157686459279	666.733269256658	337.667789872478	1260.670106323984	611.434065331027	397.783342925317	1287.409330828245	535.775167803812	387.622646668939	1252.243738007744	459.830065100301	376.094408392129	1150.355315433583	357.957814609605	321.682878275991	1203.915448901341	235.681138736832	371.085344265286	1106.810456690176	404.225262917999	632.563849316274	1032.237568288768	300.840348728284	691.171901185066	1074.445623917008	206.368273848027	627.072152763526	939.312036629900	43.240811853999	589.188460236231	1108.320641998257	97.419841121923	633.560417942974	1019.086006445680	36.675317411394	668.376369619338	1227.506923161697	45.378410828356	666.627862227677	1072.068204519661	84.978838862989	404.557656842965	1142.319908542456	78.014766546318	322.280633356930	1230.767511592306	133.501488746716	345.347920397551	1351.354314843377	74.981946247985	311.144883973714	976.312713599727	1098.079989553269	274.430641099252	1025.937514016033	842.756396854807	236.457819517210	1144.372289782902	1099.812412973882	853.819293920205	1343.024622748929	936.624956930824	820.828119027089	
